<svg width="85" height="18" viewBox="0 0 85 18" fill="none" xmlns="http://www.w3.org/2000/svg">
<path d="M31.4128 1.20215H34.5734L39.9475 10.8436L45.3215 1.20216H48.4136V17.0449H45.835V4.90262L41.1227 13.3106H38.7038L33.9915 4.90262V17.0449H31.4128V1.20215Z" fill="white"/>
<path d="M56.7312 17.328C55.5369 17.328 54.4872 17.0658 53.5821 16.5415C52.6768 16.0171 51.9713 15.291 51.4655 14.3631C50.9596 13.4351 50.7067 12.3714 50.7068 11.1719C50.7068 9.95736 50.954 8.88232 51.4484 7.94678C51.9428 7.01143 52.6293 6.27962 53.5079 5.75135C54.3865 5.22341 55.3963 4.95937 56.5373 4.95923C57.6706 4.95923 58.6461 5.22515 59.4639 5.75699C60.2815 6.28897 60.9109 7.03398 61.3522 7.99201C61.7933 8.95019 62.0139 10.0743 62.014 11.3643V12.0658H53.2626C53.4224 13.0316 53.816 13.7917 54.4436 14.346C55.0711 14.9006 55.8641 15.1778 56.8225 15.1778C57.5907 15.1778 58.2525 15.0646 58.8078 14.8383C59.363 14.612 59.8841 14.2687 60.371 13.8086L61.7402 15.472C60.3784 16.7094 58.7088 17.3281 56.7312 17.328ZM58.6139 7.92972C58.0737 7.38285 57.3663 7.10937 56.4916 7.10927C55.6396 7.10927 54.9265 7.38844 54.3523 7.94677C53.7779 8.50506 53.4146 9.2557 53.2626 10.1987H59.5381C59.462 9.23302 59.1539 8.47669 58.6139 7.92972Z" fill="white"/>
<path d="M65.1405 7.33557H62.7672V5.24204H65.1405V1.7793H67.6278V5.24204H71.2334V7.33557H67.6278V12.6428C67.6278 13.5254 67.78 14.1554 68.0842 14.5326C68.3884 14.9099 68.9094 15.0985 69.6474 15.0984C69.9743 15.0984 70.252 15.0852 70.4804 15.0588C70.7085 15.0325 70.9595 14.9967 71.2334 14.9513V17.0221C70.9209 17.1118 70.6026 17.1799 70.2806 17.2259C69.9123 17.2797 69.5405 17.3061 69.1682 17.3051C66.4829 17.3051 65.1404 15.8491 65.1405 12.9371V7.33557Z" fill="white"/>
<path d="M84.1953 17.045H81.7536V15.3928C81.32 16.0115 80.7685 16.4887 80.0992 16.8243C79.4298 17.1599 78.6691 17.3278 77.8172 17.328C76.7675 17.328 75.8376 17.062 75.0275 16.5301C74.2173 15.9982 73.5803 15.2665 73.1163 14.3348C72.6523 13.403 72.4203 12.3374 72.4203 11.138C72.4203 9.93091 72.6561 8.86338 73.1277 7.93536C73.5993 7.00753 74.2515 6.27953 75.0845 5.75135C75.9174 5.22341 76.874 4.95937 77.9541 4.95923C78.768 4.95923 79.4982 5.11579 80.1448 5.42892C80.7826 5.73494 81.3351 6.19148 81.7536 6.75852V5.2422H84.1953V17.045ZM81.708 9.37262C81.4416 8.70117 81.0213 8.17116 80.4472 7.78259C79.8727 7.39412 79.2091 7.19988 78.4561 7.19988C77.3911 7.19988 76.543 7.55444 75.9118 8.26356C75.2803 8.97272 74.9646 9.93085 74.9647 11.1379C74.9647 12.3527 75.269 13.3145 75.8775 14.0236C76.486 14.7328 77.3113 15.0873 78.3535 15.0873C79.1216 15.0873 79.8062 14.8911 80.4072 14.4988C81.008 14.1067 81.4416 13.5786 81.708 12.9145V9.37262Z" fill="white"/>
<path d="M18.9537 0.666748C16.8802 0.666748 15.2592 2.21568 13.7919 4.1833C11.7756 1.637 10.0892 0.666748 8.07124 0.666748C3.95701 0.666748 0.804688 5.97709 0.804688 11.5978C0.804688 15.115 2.52037 17.3334 5.39409 17.3334C7.46242 17.3334 8.94995 16.3663 11.5944 11.7817C11.5944 11.7817 12.6968 9.851 13.4551 8.52105C13.7209 8.94658 14.0007 9.40511 14.2948 9.89663L15.5348 11.9656C17.9504 15.9747 19.2963 17.3334 21.7352 17.3334C24.5347 17.3334 26.0928 15.0847 26.0928 11.4943C26.0928 5.60928 22.8694 0.666748 18.9537 0.666748ZM9.57787 10.5403C7.43383 13.8736 6.6921 14.6208 5.4984 14.6208C4.26992 14.6208 3.53979 13.5511 3.53979 11.6438C3.53979 7.5633 5.59111 3.39089 8.03648 3.39089C9.3607 3.39089 10.4673 4.14939 12.1624 6.55611C10.5529 9.00462 9.57787 10.5403 9.57787 10.5403ZM17.6698 10.1207L16.1871 7.66821C15.7859 7.02101 15.4003 6.42529 15.0303 5.88104C16.3666 3.83545 17.4689 2.81618 18.7799 2.81618C21.5034 2.81618 23.6822 6.79319 23.6822 11.6782C23.6822 13.5403 23.0672 14.6208 21.7931 14.6208C20.5719 14.6208 19.9885 13.8209 17.6698 10.1207Z" fill="white"/>
</svg>
