
<svg width="20px" height="20px" viewBox="0 0 20 20" version="1.1" xmlns="http://www.w3.org/2000/svg" xmlns:xlink="http://www.w3.org/1999/xlink">
    <g id="Symbols" stroke="none" stroke-width="1" fill="none" fill-rule="evenodd">
        <g id="footer/idle" transform="translate(-210.000000, -130.000000)">
            <rect fill="#F5F6F6" x="0" y="0" width="1440" height="522"></rect>
            <g id="Icon/twitter" transform="translate(210.000000, 130.000000)" fill="#3A3A3A">
                <g id="footer-twitter">
                    <path d="M10,0 C15.5228474,0 20,4.47715251 20,10 C20,15.5228475 15.5228474,20 10,20 C4.47715263,20 0,15.5228475 0,10 C0,4.47715251 4.47715263,0 10,0 Z M12.6709011,5.78947368 C11.3299053,5.78947368 10.2409758,6.86084321 10.2409758,8.18021494 C10.2409758,8.36869661 10.2611411,8.55221824 10.3065137,8.72581979 C8.28493684,8.62661891 6.49526105,7.67429044 5.29542211,6.22595757 C5.08872737,6.57812069 4.96773579,6.98980436 4.96773579,7.42628823 C4.96773579,8.2546156 5.39624947,8.98870213 6.05162316,9.41526592 C5.65335789,9.40534582 5.28029895,9.29622485 4.95261158,9.11766326 L4.95261158,9.14742354 L4.95261158,9.14742354 C4.95261158,10.3080739 5.78947368,11.2703224 6.90360947,11.4935244 C6.70195579,11.5480848 6.48517895,11.5778452 6.26336,11.5778452 C6.10707789,11.5778452 5.95583789,11.5629651 5.80459789,11.5332047 C6.11211895,12.4855332 7.00947789,13.1749794 8.0732,13.1948195 C7.24137895,13.8346652 6.19278105,14.2165886 5.05343789,14.2165886 C4.85682632,14.2165886 4.66525474,14.2066685 4.47368421,14.1818683 C5.53740632,14.8663543 6.81790632,15.2631579 8.18915053,15.2631579 C12.6608189,15.2631579 15.1058684,11.6175255 15.1058684,8.4579774 C15.1058684,8.35381647 15.1058684,8.24965555 15.1008263,8.15045467 C15.5747126,7.81317167 15.9881021,7.39156793 16.3157895,6.91044365 C15.8822347,7.09892533 15.4133895,7.22788647 14.9193389,7.287407 C15.4234726,6.98980436 15.8066147,6.52356021 15.9881021,5.96307523 C15.5192579,6.23587765 15,6.43427942 14.4454526,6.54340039 C14.0018147,6.07715624 13.3716474,5.78947368 12.6709011,5.78947368 Z" id="Twitter" fill-rule="nonzero"></path>
                </g>
            </g>
        </g>
    </g>
</svg>
